<?xml version="1.0" encoding="UTF-8"?>
<svg xmlns="http://www.w3.org/2000/svg" xmlns:xlink="http://www.w3.org/1999/xlink" width="255.12pt" height="255.12pt" viewBox="0 0 255.12 255.12" version="1.1">
<defs>
<clipPath id="clip1">
  <path d="M 0 0 L 232 0 L 232 255.121094 L 0 255.121094 Z M 0 0 "/>
</clipPath>
<clipPath id="clip2">
  <path d="M 155 23 L 255.121094 23 L 255.121094 133 L 155 133 Z M 155 23 "/>
</clipPath>
<clipPath id="clip3">
  <path d="M 103 49 L 255.121094 49 L 255.121094 231 L 103 231 Z M 103 49 "/>
</clipPath>
<clipPath id="clip4">
  <path d="M 137 16 L 255.121094 16 L 255.121094 167 L 137 167 Z M 137 16 "/>
</clipPath>
</defs>
<g id="surface1">
<path style="fill-rule:nonzero;fill:rgb(14.804077%,34.913635%,60.046387%);fill-opacity:1;stroke-width:0.5;stroke-linecap:butt;stroke-linejoin:round;stroke:rgb(14.804077%,34.913635%,60.046387%);stroke-opacity:1;stroke-miterlimit:10;" d="M 81.777344 204.178594 L 87.449219 204.178594 L 87.449219 201.33875 L 81.777344 201.33875 Z M 81.777344 204.178594 " transform="matrix(1,0,0,-1,0,255.12)"/>
<path style="fill-rule:nonzero;fill:rgb(14.804077%,34.913635%,60.046387%);fill-opacity:1;stroke-width:0.5;stroke-linecap:butt;stroke-linejoin:round;stroke:rgb(14.804077%,34.913635%,60.046387%);stroke-opacity:1;stroke-miterlimit:10;" d="M 81.78125 198.510625 L 98.496094 198.510625 L 98.496094 192.834844 L 81.78125 192.834844 Z M 81.78125 198.510625 " transform="matrix(1,0,0,-1,0,255.12)"/>
<path style="fill-rule:nonzero;fill:rgb(14.804077%,34.913635%,60.046387%);fill-opacity:1;stroke-width:0.5;stroke-linecap:butt;stroke-linejoin:round;stroke:rgb(14.804077%,34.913635%,60.046387%);stroke-opacity:1;stroke-miterlimit:10;" d="M 93.117188 184.330938 L 87.445313 184.330938 L 87.445313 187.166875 L 93.117188 187.166875 Z M 84.613281 184.334844 L 78.9375 184.334844 L 78.9375 187.170781 L 84.613281 187.170781 Z M 106.699219 184.330938 L 95.953125 184.330938 L 95.953125 187.166875 L 105.554688 187.166875 L 104.414063 190.002813 L 73.273438 190.002813 L 73.273438 177.983281 L 109.261719 177.983281 Z M 106.699219 184.330938 " transform="matrix(1,0,0,-1,0,255.12)"/>
<path style="fill-rule:nonzero;fill:rgb(14.804077%,34.913635%,60.046387%);fill-opacity:1;stroke-width:0.5;stroke-linecap:butt;stroke-linejoin:round;stroke:rgb(14.804077%,34.913635%,60.046387%);stroke-opacity:1;stroke-miterlimit:10;" d="M 141.308594 169.1825 L 135.648438 169.1825 L 135.648438 171.948125 L 141.308594 171.948125 Z M 132.808594 169.1825 L 127.144531 169.1825 L 127.144531 171.948125 L 132.808594 171.948125 Z M 124.304688 169.1825 L 118.636719 169.1825 L 118.636719 171.948125 L 124.304688 171.948125 Z M 100.398438 157.065313 L 89.75 157.065313 L 89.75 170.174688 L 100.398438 170.174688 Z M 78.433594 157.065313 L 68.90625 157.065313 L 68.90625 170.174688 L 78.433594 170.174688 Z M 144.152344 168.9325 L 144.152344 170.221563 L 144.148438 170.221563 L 144.148438 172.991094 L 144.152344 172.991094 L 144.152344 174.311406 L 52.382813 174.311406 L 52.382813 170.248906 L 52.433594 170.248906 L 52.421875 170.174688 L 57.59375 170.174688 L 57.59375 157.065313 L 26.992188 157.065313 L 26.992188 153.147344 L 32.226563 144.424688 L 29.222656 139.920781 L 133.304688 139.920781 L 129.121094 144.65125 L 144.144531 167.323125 L 144.152344 167.323125 L 144.152344 167.592656 L 144.164063 168.397344 L 144.164063 168.9325 Z M 144.152344 168.9325 " transform="matrix(1,0,0,-1,0,255.12)"/>
<path style="fill-rule:nonzero;fill:rgb(14.804077%,34.913635%,60.046387%);fill-opacity:1;stroke-width:0.5;stroke-linecap:butt;stroke-linejoin:round;stroke:rgb(14.804077%,34.913635%,60.046387%);stroke-opacity:1;stroke-miterlimit:10;" d="M -0.00146875 0.00184375 L -0.00928125 0.0135625 C -0.005375 0.00965625 -0.005375 0.00184375 -0.00146875 0.00184375 " transform="matrix(1,0,0,-1,94.7085,101.9745)"/>
<path style="fill-rule:nonzero;fill:rgb(14.804077%,34.913635%,60.046387%);fill-opacity:1;stroke-width:0.5;stroke-linecap:butt;stroke-linejoin:round;stroke:rgb(14.804077%,34.913635%,60.046387%);stroke-opacity:1;stroke-miterlimit:10;" d="M 0.00050625 0.001825 L 0.00050625 -0.173956 L -10.319806 10.146356 L 1.410662 8.911981 Z M 2.082537 13.161981 L 1.734881 10.970575 L -12.663556 12.4862 L -14.808088 14.634637 C -15.620588 15.447137 -16.944806 15.447137 -17.757306 14.634637 C -18.569806 13.822137 -18.569806 12.497919 -17.757306 11.689325 L -17.343244 11.271356 L -15.257306 9.189325 L -3.308088 -2.759894 L 10.648944 -2.759894 L 10.648944 13.161981 Z M 2.082537 13.161981 " transform="matrix(1,0,0,-1,56.1909,74.2987)"/>
<path style=" stroke:none;fill-rule:nonzero;fill:rgb(100%,100%,100%);fill-opacity:1;" d="M 239.878906 106.394531 C 239.820313 106.382813 239.765625 106.382813 239.707031 106.394531 C 239.683594 106.363281 239.65625 106.335938 239.625 106.304688 C 239.5625 106.328125 239.5 106.355469 239.449219 106.394531 C 239.359375 106.402344 239.269531 106.433594 239.191406 106.476563 C 231.664063 111.585938 224.847656 111.457031 218.1875 106.476563 C 218.136719 106.441406 218.078125 106.414063 218.019531 106.394531 C 217.96875 106.355469 217.90625 106.328125 217.84375 106.304688 C 217.785156 106.328125 217.726563 106.355469 217.675781 106.394531 C 217.648438 106.390625 217.617188 106.390625 217.589844 106.394531 C 217.527344 106.414063 217.472656 106.441406 217.417969 106.476563 C 209.890625 111.585938 202.988281 111.457031 196.328125 106.476563 C 196.300781 106.449219 196.277344 106.421875 196.242188 106.394531 C 196.164063 106.34375 196.074219 106.3125 195.984375 106.304688 C 195.925781 106.328125 195.863281 106.355469 195.8125 106.394531 C 195.722656 106.402344 195.632813 106.433594 195.554688 106.476563 C 188.027344 111.585938 181.210938 111.457031 174.550781 106.476563 C 174.5 106.441406 174.441406 106.414063 174.378906 106.394531 C 174.328125 106.355469 174.269531 106.328125 174.210938 106.304688 C 174.179688 106.304688 174.152344 106.304688 174.121094 106.304688 C 174.089844 106.335938 174.0625 106.363281 174.035156 106.394531 C 174.007813 106.390625 173.980469 106.390625 173.953125 106.394531 C 173.890625 106.414063 173.828125 106.441406 173.777344 106.476563 C 166.25 111.585938 159.351563 111.457031 152.691406 106.476563 C 152.664063 106.449219 152.636719 106.421875 152.601563 106.394531 C 152.527344 106.34375 152.4375 106.3125 152.347656 106.304688 C 152.28125 106.328125 152.226563 106.355469 152.175781 106.394531 C 152.082031 106.402344 151.992188 106.433594 151.914063 106.476563 C 144.390625 111.585938 137.570313 111.457031 130.910156 106.476563 C 130.859375 106.441406 130.804688 106.414063 130.742188 106.394531 C 130.691406 106.355469 130.632813 106.328125 130.570313 106.304688 C 130.539063 106.304688 130.515625 106.304688 130.484375 106.304688 C 130.453125 106.335938 130.425781 106.363281 130.398438 106.394531 C 130.371094 106.390625 130.339844 106.390625 130.316406 106.394531 C 130.25 106.414063 130.195313 106.441406 130.140625 106.476563 C 128.105469 107.863281 126.09375 108.855469 124.140625 109.480469 L 122.769531 109.824219 C 118.019531 110.929688 113.480469 109.796875 109.050781 106.476563 C 109.027344 106.449219 108.996094 106.421875 108.964844 106.394531 C 108.886719 106.34375 108.796875 106.3125 108.707031 106.304688 C 108.652344 106.300781 108.59375 106.300781 108.535156 106.304688 C 108.535156 106.335938 108.535156 106.367188 108.535156 106.394531 C 108.445313 106.402344 108.355469 106.433594 108.277344 106.476563 C 100.75 111.585938 93.9375 111.457031 87.277344 106.476563 C 87.222656 106.441406 87.164063 106.414063 87.105469 106.394531 C 87.054688 106.355469 86.992188 106.328125 86.933594 106.304688 C 86.902344 106.304688 86.875 106.304688 86.847656 106.304688 C 86.820313 106.304688 86.789063 106.304688 86.761719 106.304688 C 86.726563 106.335938 86.699219 106.363281 86.675781 106.394531 C 86.613281 106.414063 86.554688 106.441406 86.503906 106.476563 C 78.976563 111.585938 72.074219 111.457031 65.414063 106.476563 C 65.386719 106.449219 65.359375 106.421875 65.328125 106.394531 C 65.25 106.34375 65.164063 106.3125 65.070313 106.304688 C 65.011719 106.300781 64.953125 106.300781 64.898438 106.304688 L 64.898438 106.394531 C 64.871094 106.390625 64.839844 106.390625 64.8125 106.394531 C 64.75 106.414063 64.691406 106.441406 64.640625 106.476563 C 57.113281 111.585938 50.296875 111.457031 43.636719 106.476563 C 43.585938 106.441406 43.527344 106.414063 43.46875 106.394531 C 43.414063 106.355469 43.351563 106.328125 43.292969 106.304688 C 43.265625 106.304688 43.234375 106.304688 43.207031 106.304688 C 43.179688 106.304688 43.152344 106.304688 43.121094 106.304688 C 43.089844 106.335938 43.0625 106.363281 43.035156 106.394531 C 42.976563 106.414063 42.917969 106.441406 42.867188 106.476563 C 35.335938 111.585938 28.4375 111.457031 21.777344 106.476563 C 21.746094 106.476563 21.71875 106.476563 21.691406 106.476563 C 21.664063 106.449219 21.632813 106.421875 21.605469 106.394531 C 21.578125 106.363281 21.550781 106.335938 21.519531 106.304688 C 21.488281 106.304688 21.460938 106.304688 21.429688 106.304688 C 21.375 106.300781 21.316406 106.300781 21.261719 106.304688 C 21.160156 106.339844 21.070313 106.402344 21.003906 106.476563 C 15.070313 110.503906 9.574219 111.300781 4.253906 109.027344 C 0 192.125 56.859375 247.605469 127.5625 247.605469 C 203.921875 247.605469 255.121094 184.175781 250.285156 110.1875 C 247.308594 109.867188 242.832031 108.625 239.964844 106.476563 C 239.941406 106.449219 239.910156 106.421875 239.878906 106.394531 "/>
<path style=" stroke:none;fill-rule:nonzero;fill:rgb(38.127136%,63.308716%,86.486816%);fill-opacity:1;" d="M 239.878906 109.652344 C 239.820313 109.644531 239.765625 109.644531 239.707031 109.652344 C 239.683594 109.625 239.65625 109.597656 239.625 109.566406 C 239.5625 109.589844 239.5 109.617188 239.449219 109.652344 C 239.359375 109.660156 239.269531 109.691406 239.191406 109.738281 C 231.664063 114.84375 224.847656 114.714844 218.1875 109.738281 C 218.136719 109.703125 218.078125 109.675781 218.019531 109.652344 C 217.96875 109.617188 217.90625 109.589844 217.84375 109.566406 C 217.785156 109.589844 217.726563 109.617188 217.675781 109.652344 C 217.648438 109.652344 217.617188 109.652344 217.589844 109.652344 C 217.527344 109.675781 217.472656 109.703125 217.417969 109.738281 C 209.890625 114.84375 202.988281 114.714844 196.328125 109.738281 C 196.300781 109.707031 196.277344 109.683594 196.242188 109.652344 C 196.164063 109.605469 196.074219 109.574219 195.984375 109.566406 C 195.925781 109.589844 195.863281 109.617188 195.8125 109.652344 C 195.722656 109.660156 195.632813 109.691406 195.554688 109.738281 C 188.027344 114.84375 181.210938 114.714844 174.550781 109.738281 C 174.5 109.703125 174.441406 109.675781 174.378906 109.652344 C 174.328125 109.617188 174.269531 109.589844 174.210938 109.566406 C 174.179688 109.566406 174.152344 109.566406 174.121094 109.566406 C 174.089844 109.597656 174.0625 109.625 174.035156 109.652344 C 174.007813 109.652344 173.980469 109.652344 173.953125 109.652344 C 173.890625 109.675781 173.828125 109.703125 173.777344 109.738281 C 166.25 114.84375 159.351563 114.714844 152.691406 109.738281 C 152.664063 109.707031 152.636719 109.683594 152.601563 109.652344 C 152.527344 109.605469 152.4375 109.574219 152.347656 109.566406 C 152.28125 109.589844 152.226563 109.617188 152.175781 109.652344 C 152.082031 109.660156 151.992188 109.691406 151.914063 109.738281 C 144.390625 114.84375 137.570313 114.714844 130.910156 109.738281 C 130.859375 109.703125 130.804688 109.675781 130.742188 109.652344 C 130.691406 109.617188 130.632813 109.589844 130.570313 109.566406 C 130.539063 109.566406 130.515625 109.566406 130.484375 109.566406 C 130.453125 109.597656 130.425781 109.625 130.398438 109.652344 C 130.371094 109.652344 130.339844 109.652344 130.316406 109.652344 C 130.25 109.675781 130.195313 109.703125 130.140625 109.738281 C 128.105469 111.121094 126.09375 112.113281 124.140625 112.742188 L 122.769531 113.082031 C 118.019531 114.1875 113.480469 113.054688 109.050781 109.738281 C 109.027344 109.707031 108.996094 109.683594 108.964844 109.652344 C 108.886719 109.605469 108.796875 109.574219 108.707031 109.566406 C 108.652344 109.558594 108.59375 109.558594 108.535156 109.566406 C 108.535156 109.597656 108.535156 109.628906 108.535156 109.652344 C 108.445313 109.660156 108.355469 109.691406 108.277344 109.738281 C 100.75 114.84375 93.9375 114.714844 87.277344 109.738281 C 87.222656 109.703125 87.164063 109.675781 87.105469 109.652344 C 87.054688 109.617188 86.992188 109.589844 86.933594 109.566406 C 86.902344 109.566406 86.875 109.566406 86.847656 109.566406 C 86.820313 109.566406 86.789063 109.566406 86.761719 109.566406 C 86.726563 109.597656 86.699219 109.625 86.675781 109.652344 C 86.613281 109.675781 86.554688 109.703125 86.503906 109.738281 C 78.976563 114.84375 72.074219 114.714844 65.414063 109.738281 C 65.386719 109.707031 65.359375 109.683594 65.328125 109.652344 C 65.25 109.605469 65.164063 109.574219 65.070313 109.566406 C 65.011719 109.558594 64.953125 109.558594 64.898438 109.566406 L 64.898438 109.652344 C 64.871094 109.652344 64.839844 109.652344 64.8125 109.652344 C 64.75 109.675781 64.691406 109.703125 64.640625 109.738281 C 57.113281 114.84375 50.296875 114.714844 43.636719 109.738281 C 43.585938 109.703125 43.527344 109.675781 43.46875 109.652344 C 43.414063 109.617188 43.351563 109.589844 43.292969 109.566406 C 43.265625 109.566406 43.234375 109.566406 43.207031 109.566406 C 43.179688 109.566406 43.152344 109.566406 43.121094 109.566406 C 43.089844 109.597656 43.0625 109.625 43.035156 109.652344 C 42.976563 109.675781 42.917969 109.703125 42.867188 109.738281 C 35.335938 114.84375 28.4375 114.714844 21.777344 109.738281 C 21.746094 109.734375 21.71875 109.734375 21.691406 109.738281 C 21.664063 109.707031 21.632813 109.683594 21.605469 109.652344 C 21.578125 109.625 21.550781 109.597656 21.519531 109.566406 C 21.488281 109.566406 21.460938 109.566406 21.429688 109.566406 C 21.375 109.558594 21.316406 109.558594 21.261719 109.566406 C 21.160156 109.597656 21.070313 109.660156 21.003906 109.738281 C 15.070313 113.761719 9.574219 114.558594 4.253906 112.285156 C 0 195.382813 56.859375 250.867188 127.5625 250.867188 C 203.921875 250.867188 255.121094 187.4375 250.285156 113.445313 C 247.308594 113.125 242.832031 111.882813 239.964844 109.738281 C 239.941406 109.707031 239.910156 109.683594 239.878906 109.652344 "/>
<path style="fill-rule:nonzero;fill:rgb(100%,100%,100%);fill-opacity:1;stroke-width:4;stroke-linecap:butt;stroke-linejoin:round;stroke:rgb(100%,100%,100%);stroke-opacity:1;stroke-miterlimit:10;" d="M -0.00190625 0.0018 C -0.00190625 -1.974762 -1.599562 -3.572419 -3.576125 -3.576325 L -29.915969 -3.576325 C -31.888625 -3.572419 -33.482375 -1.974762 -33.486281 0.0018 L -33.486281 24.454925 C -33.482375 26.431488 -31.888625 28.029144 -29.915969 28.03305 L -3.576125 28.03305 C -1.599562 28.029144 -0.00190625 26.431488 -0.00190625 24.454925 Z M -16.744094 21.259613 C -21.728469 21.259613 -25.775344 17.22055 -25.775344 12.228363 C -25.775344 7.240081 -21.728469 3.197113 -16.744094 3.197113 C -11.759719 3.197113 -7.712844 7.240081 -7.712844 12.228363 C -7.712844 17.22055 -11.759719 21.259613 -16.744094 21.259613 M -16.740187 5.454925 C -20.482375 5.454925 -23.517531 8.486175 -23.517531 12.228363 C -23.517531 15.966644 -20.482375 18.997894 -16.740187 18.997894 C -13.001906 18.997894 -9.96675 15.966644 -9.96675 12.228363 C -9.96675 8.486175 -13.001906 5.454925 -16.740187 5.454925 M -16.740187 16.931488 C -17.197219 16.931488 -17.638625 16.861175 -18.056594 16.740081 L -16.642531 12.228363 L -12.34175 10.587738 C -12.150344 11.103363 -12.040969 11.650238 -12.040969 12.228363 C -12.040969 14.826019 -14.146437 16.931488 -16.740187 16.931488 M -21.447219 12.228363 C -21.447219 9.634613 -19.34175 7.525238 -16.740187 7.525238 C -16.189406 7.525238 -15.669875 7.622894 -15.177687 7.798675 L -16.642531 12.228363 L -21.095656 14.009613 C -21.322219 13.462738 -21.447219 12.857269 -21.447219 12.228363 M -5.763625 20.142425 L -3.572219 22.333831 L -6.638625 25.396331 L -8.826125 23.204925 C -11.056594 24.8143 -13.787062 25.771331 -16.744094 25.771331 C -19.701125 25.771331 -22.431594 24.8143 -24.658156 23.208831 L -26.849562 25.396331 L -29.915969 22.333831 L -27.724562 20.142425 C -29.333937 17.919769 -30.287062 15.1893 -30.287062 12.228363 C -30.287062 9.271331 -29.330031 6.540863 -27.71675 4.3143 L -29.915969 2.118988 L -26.849562 -0.943512 L -24.658156 1.2518 C -22.431594 -0.357575 -19.701125 -1.318512 -16.744094 -1.318512 C -13.787062 -1.318512 -11.0605 -0.357575 -8.826125 1.2518 L -6.638625 -0.943512 L -3.572219 2.118988 L -5.771437 4.3143 C -4.158156 6.540863 -3.197219 9.271331 -3.197219 12.228363 C -3.197219 15.1893 -4.158156 17.915863 -5.763625 20.142425 M -7.111281 5.654144 L -7.865187 6.40805 C -8.623 5.150238 -9.662062 4.107269 -10.923781 3.349456 L -10.169875 2.59555 C -12.044875 1.3143 -14.306594 0.5643 -16.744094 0.5643 C -19.1855 0.5643 -21.443312 1.3143 -23.314406 2.591644 L -22.5605 3.349456 C -23.818312 4.107269 -24.861281 5.150238 -25.623 6.40805 L -26.376906 5.654144 C -27.658156 7.525238 -28.408156 9.786956 -28.408156 12.228363 C -28.408156 14.665863 -27.658156 16.931488 -26.376906 18.802581 L -25.623 18.044769 C -24.865187 19.306488 -23.818312 20.34555 -22.5605 21.107269 L -23.318312 21.861175 C -21.443312 23.142425 -19.1855 23.892425 -16.744094 23.892425 C -14.306594 23.892425 -12.044875 23.138519 -10.169875 21.861175 L -10.923781 21.107269 C -9.665969 20.34555 -8.623 19.306488 -7.865187 18.044769 L -7.107375 18.802581 C -5.830031 16.931488 -5.080031 14.665863 -5.080031 12.228363 C -5.080031 9.786956 -5.830031 7.529144 -7.111281 5.654144 M 17.119188 16.740081 C 17.119188 17.990081 16.275438 18.997894 15.236375 18.997894 C 16.275438 18.997894 17.119188 20.013519 17.119188 21.259613 C 17.119188 22.505706 16.275438 23.517425 15.236375 23.517425 L 15.236375 26.341644 C 15.236375 27.3768 14.1895 28.22055 12.888719 28.22055 C 11.587938 28.22055 10.53325 27.3768 10.53325 26.341644 L 10.53325 23.517425 C 9.498094 23.517425 8.654344 22.505706 8.654344 21.259613 C 8.654344 20.013519 9.498094 18.997894 10.53325 18.997894 C 9.498094 18.997894 8.654344 17.990081 8.654344 16.740081 C 8.654344 15.497894 9.498094 14.486175 10.53325 14.486175 C 9.498094 14.486175 8.654344 13.474456 8.654344 12.228363 C 8.654344 10.982269 9.498094 9.97055 10.53325 9.97055 L 10.53325 3.763519 L 2.255906 3.763519 L 2.255906 10.349456 L 5.830125 10.349456 L 5.830125 14.861175 L 2.255906 14.861175 L 2.255906 17.118988 L 5.830125 17.118988 L 5.830125 23.138519 L 2.255906 23.138519 L 2.255906 24.454925 C 2.255906 27.677581 -0.353469 30.290863 -3.576125 30.290863 L -10.619094 30.290863 C -11.236281 30.701019 -11.478469 31.388519 -11.478469 32.009613 C -11.478469 32.974456 -11.708937 34.427581 -14.107375 34.427581 L -19.376906 34.427581 C -21.775344 34.427581 -22.013625 32.974456 -22.013625 32.009613 C -22.013625 31.388519 -22.251906 30.701019 -22.869094 30.290863 L -25.775344 30.290863 L -25.775344 32.548675 L -30.287062 32.548675 L -30.287062 30.271331 C -33.333937 30.072113 -35.744094 27.548675 -35.744094 24.454925 L -35.744094 23.138519 L -39.318312 23.138519 L -39.318312 17.118988 L -35.744094 17.118988 L -35.744094 14.861175 L -39.318312 14.861175 L -39.318312 10.349456 L -35.744094 10.349456 L -35.744094 3.763519 L -44.025344 3.763519 L -44.025344 9.97055 C -42.986281 9.97055 -42.142531 10.982269 -42.142531 12.228363 C -42.142531 13.474456 -42.986281 14.486175 -44.025344 14.486175 C -42.986281 14.486175 -42.142531 15.497894 -42.142531 16.740081 C -42.142531 17.990081 -42.986281 18.997894 -44.025344 18.997894 C -42.986281 18.997894 -42.142531 20.013519 -42.142531 21.259613 C -42.142531 22.505706 -42.986281 23.517425 -44.025344 23.517425 L -44.025344 26.341644 C -44.025344 27.3768 -45.076125 28.22055 -46.373 28.22055 C -47.673781 28.22055 -48.724562 27.3768 -48.724562 26.341644 L -48.724562 23.517425 C -49.763625 23.517425 -50.607375 22.505706 -50.607375 21.259613 C -50.607375 20.013519 -49.763625 18.997894 -48.724562 18.997894 C -49.763625 18.997894 -50.607375 17.990081 -50.607375 16.740081 C -50.607375 15.497894 -49.763625 14.486175 -48.724562 14.486175 C -49.763625 14.486175 -50.607375 13.474456 -50.607375 12.228363 C -50.607375 10.982269 -49.763625 9.97055 -48.724562 9.97055 L -48.724562 6.583831 C -48.724562 2.193206 -47.001906 -0.943512 -42.142531 -0.943512 L -35.662062 -0.943512 C -35.212844 -3.71695 -32.814406 -5.830231 -29.915969 -5.834137 L -3.576125 -5.830231 C -0.673781 -5.830231 1.724656 -3.71695 2.177781 -0.943512 L 8.654344 -0.943512 C 13.517625 -0.943512 15.236375 2.193206 15.236375 6.583831 L 15.236375 9.97055 C 16.275438 9.97055 17.119188 10.982269 17.119188 12.228363 C 17.119188 13.474456 16.275438 14.486175 15.236375 14.486175 C 16.275438 14.486175 17.119188 15.497894 17.119188 16.740081 " transform="matrix(1,0,0,-1,140.748,219.5018)"/>
<g clip-path="url(#clip1)" clip-rule="nonzero">
<path style="fill:none;stroke-width:7;stroke-linecap:butt;stroke-linejoin:miter;stroke:rgb(100%,100%,100%);stroke-opacity:1;stroke-miterlimit:10;" d="M 0.00195 -0.00105625 C 0.00195 -2.821369 1.037106 -10.618244 -9.5918 -21.24715 C -15.513675 -27.169025 -23.49805 -37.083088 -23.49805 -48.825275 C -23.49805 -56.985431 -18.6543 -68.676838 -0.470706 -67.274494 C 17.712887 -65.876056 40.044919 -61.149494 45.548825 -71.602619 C 51.052731 -82.051838 37.5957 -97.516681 44.322262 -107.9659 C 51.052731 -118.419025 59.310544 -113.598713 65.365231 -110.114338 C 71.423825 -106.633869 83.123044 -96.227619 89.853512 -102.669025 C 96.580075 -109.110431 90.623044 -116.696369 88.232419 -118.774494 C 85.841794 -120.852619 83.974606 -123.118244 83.974606 -127.1534 " transform="matrix(1,0,0,-1,40.0293,60.2841)"/>
</g>
<path style="fill:none;stroke-width:3.5;stroke-linecap:round;stroke-linejoin:miter;stroke:rgb(14.804077%,34.913635%,60.046387%);stroke-opacity:1;stroke-miterlimit:10;" d="M -0.00000625 -0.001075 C 3.832025 1.0458 6.085931 4.998925 5.039056 8.823144 " transform="matrix(1,0,0,-1,128.8086,44.3583)"/>
<path style="fill:none;stroke-width:3;stroke-linecap:round;stroke-linejoin:miter;stroke:rgb(14.804077%,34.913635%,60.046387%);stroke-opacity:1;stroke-miterlimit:10;" d="M -0.00093125 0.00036875 C 7.713912 2.105838 12.264694 10.066775 10.155319 17.781619 " transform="matrix(1,0,0,-1,130.7314,51.3949)"/>
<path style="fill:none;stroke-width:2.5;stroke-linecap:round;stroke-linejoin:miter;stroke:rgb(14.804077%,34.913635%,60.046387%);stroke-opacity:1;stroke-miterlimit:10;" d="M 0.00190625 -0.00058125 C 12.943313 3.530669 20.576125 16.89395 17.040969 29.835356 " transform="matrix(1,0,0,-1,133.3145,60.8627)"/>
<g clip-path="url(#clip2)" clip-rule="nonzero">
<path style="fill:none;stroke-width:3.5;stroke-linecap:round;stroke-linejoin:miter;stroke:rgb(14.804077%,34.913635%,60.046387%);stroke-opacity:1;stroke-miterlimit:10;" d="M 0.00095 0.001825 C -4.370144 -0.943488 -6.893581 -5.498175 -5.651394 -10.17005 " transform="matrix(1,0,0,-1,211.2178,73.1112)"/>
</g>
<path style="fill:none;stroke-width:3;stroke-linecap:round;stroke-linejoin:miter;stroke:rgb(14.804077%,34.913635%,60.046387%);stroke-opacity:1;stroke-miterlimit:10;" d="M -0.00001875 0.0013625 C -8.792988 -1.900981 -13.890644 -11.076763 -11.378925 -20.490825 " transform="matrix(1,0,0,-1,208.9258,64.5248)"/>
<path style="fill:none;stroke-width:2.5;stroke-linecap:round;stroke-linejoin:miter;stroke:rgb(14.804077%,34.913635%,60.046387%);stroke-opacity:1;stroke-miterlimit:10;" d="M -0.0019375 0.00135 C -14.755844 -3.193962 -23.306625 -18.5924 -19.099594 -34.385369 " transform="matrix(1,0,0,-1,205.8535,52.9701)"/>
<path style="fill:none;stroke-width:3;stroke-linecap:butt;stroke-linejoin:miter;stroke:rgb(60.548401%,71.246338%,89.161682%);stroke-opacity:1;stroke-miterlimit:10;" d="M 0.00195 -0.00105625 C 0.00195 -2.821369 1.037106 -10.618244 -9.5918 -21.24715 C -15.513675 -27.169025 -23.49805 -37.083088 -23.49805 -48.825275 C -23.49805 -56.985431 -18.6543 -68.676838 -0.470706 -67.274494 C 17.712887 -65.876056 40.044919 -61.149494 45.548825 -71.602619 C 51.052731 -82.051838 37.5957 -97.516681 44.322262 -107.9659 C 51.052731 -118.419025 59.310544 -113.598713 65.365231 -110.114338 C 71.423825 -106.633869 83.123044 -96.227619 89.853512 -102.669025 C 96.580075 -109.110431 90.623044 -116.696369 88.232419 -118.774494 C 85.841794 -120.852619 83.974606 -123.118244 83.974606 -127.1534 " transform="matrix(1,0,0,-1,40.0293,60.2841)"/>
<path style="fill-rule:nonzero;fill:rgb(14.804077%,34.913635%,60.046387%);fill-opacity:1;stroke-width:0.5;stroke-linecap:butt;stroke-linejoin:round;stroke:rgb(14.804077%,34.913635%,60.046387%);stroke-opacity:1;stroke-miterlimit:10;" d="M 0.00050625 0.001825 L 0.00050625 -0.173956 L -10.319806 10.146356 L 1.410662 8.911981 Z M 2.082537 13.161981 L 1.734881 10.970575 L -12.663556 12.4862 L -14.808088 14.634637 C -15.620588 15.447137 -16.944806 15.447137 -17.757306 14.634637 C -18.569806 13.822137 -18.569806 12.497919 -17.757306 11.689325 L -17.343244 11.271356 L -15.257306 9.189325 L -3.308088 -2.759894 L 10.648944 -2.759894 L 10.648944 13.161981 Z M 2.082537 13.161981 " transform="matrix(1,0,0,-1,56.1909,74.2987)"/>
<path style=" stroke:none;fill-rule:nonzero;fill:rgb(100%,100%,100%);fill-opacity:1;" d="M 141.386719 220.675781 C 141.386719 222.25 140.121094 223.527344 138.566406 223.527344 L 109.109375 223.527344 C 107.550781 223.527344 106.289063 222.25 106.289063 220.675781 L 106.289063 194.03125 C 106.289063 192.457031 107.550781 191.179688 109.109375 191.179688 L 138.566406 191.179688 C 140.121094 191.179688 141.386719 192.457031 141.386719 194.03125 Z M 141.386719 220.675781 "/>
<path style=" stroke:none;fill-rule:nonzero;fill:rgb(14.804077%,34.913635%,60.046387%);fill-opacity:1;" d="M 140.746094 219.5 C 140.746094 221.476563 139.148438 223.074219 137.171875 223.078125 L 110.832031 223.078125 C 108.859375 223.074219 107.265625 221.476563 107.261719 219.5 L 107.261719 195.046875 C 107.265625 193.070313 108.859375 191.472656 110.832031 191.46875 L 137.171875 191.46875 C 139.148438 191.472656 140.746094 193.070313 140.746094 195.046875 Z M 124.003906 198.242188 C 119.019531 198.242188 114.972656 202.28125 114.972656 207.273438 C 114.972656 212.261719 119.019531 216.304688 124.003906 216.304688 C 128.988281 216.304688 133.035156 212.261719 133.035156 207.273438 C 133.035156 202.28125 128.988281 198.242188 124.003906 198.242188 M 124.007813 214.046875 C 120.265625 214.046875 117.230469 211.015625 117.230469 207.273438 C 117.230469 203.535156 120.265625 200.503906 124.007813 200.503906 C 127.746094 200.503906 130.78125 203.535156 130.78125 207.273438 C 130.78125 211.015625 127.746094 214.046875 124.007813 214.046875 M 124.007813 202.570313 C 123.550781 202.570313 123.109375 202.640625 122.691406 202.761719 L 124.105469 207.273438 L 128.40625 208.914063 C 128.597656 208.398438 128.707031 207.851563 128.707031 207.273438 C 128.707031 204.675781 126.601563 202.570313 124.007813 202.570313 M 119.300781 207.273438 C 119.300781 209.867188 121.40625 211.976563 124.007813 211.976563 C 124.558594 211.976563 125.078125 211.878906 125.570313 211.703125 L 124.105469 207.273438 L 119.652344 205.492188 C 119.425781 206.039063 119.300781 206.644531 119.300781 207.273438 M 134.984375 199.359375 L 137.175781 197.167969 L 134.109375 194.105469 L 131.921875 196.296875 C 129.691406 194.6875 126.960938 193.730469 124.003906 193.730469 C 121.046875 193.730469 118.316406 194.6875 116.089844 196.292969 L 113.898438 194.105469 L 110.832031 197.167969 L 113.023438 199.359375 C 111.414063 201.582031 110.460938 204.3125 110.460938 207.273438 C 110.460938 210.230469 111.417969 212.960938 113.03125 215.1875 L 110.832031 217.382813 L 113.898438 220.445313 L 116.089844 218.25 C 118.316406 219.859375 121.046875 220.820313 124.003906 220.820313 C 126.960938 220.820313 129.6875 219.859375 131.921875 218.25 L 134.109375 220.445313 L 137.175781 217.382813 L 134.976563 215.1875 C 136.589844 212.960938 137.550781 210.230469 137.550781 207.273438 C 137.550781 204.3125 136.589844 201.585938 134.984375 199.359375 M 133.636719 213.847656 L 132.882813 213.09375 C 132.125 214.351563 131.085938 215.394531 129.824219 216.152344 L 130.578125 216.90625 C 128.703125 218.1875 126.441406 218.9375 124.003906 218.9375 C 121.5625 218.9375 119.304688 218.1875 117.433594 216.910156 L 118.1875 216.152344 C 116.929688 215.394531 115.886719 214.351563 115.125 213.09375 L 114.371094 213.847656 C 113.089844 211.976563 112.339844 209.714844 112.339844 207.273438 C 112.339844 204.835938 113.089844 202.570313 114.371094 200.699219 L 115.125 201.457031 C 115.882813 200.195313 116.929688 199.15625 118.1875 198.394531 L 117.429688 197.640625 C 119.304688 196.359375 121.5625 195.609375 124.003906 195.609375 C 126.441406 195.609375 128.703125 196.363281 130.578125 197.640625 L 129.824219 198.394531 C 131.082031 199.15625 132.125 200.195313 132.882813 201.457031 L 133.640625 200.699219 C 134.917969 202.570313 135.667969 204.835938 135.667969 207.273438 C 135.667969 209.714844 134.917969 211.972656 133.636719 213.847656 M 157.867188 202.761719 C 157.867188 201.511719 157.023438 200.503906 155.984375 200.503906 C 157.023438 200.503906 157.867188 199.488281 157.867188 198.242188 C 157.867188 196.996094 157.023438 195.984375 155.984375 195.984375 L 155.984375 193.160156 C 155.984375 192.125 154.9375 191.28125 153.636719 191.28125 C 152.335938 191.28125 151.28125 192.125 151.28125 193.160156 L 151.28125 195.984375 C 150.246094 195.984375 149.402344 196.996094 149.402344 198.242188 C 149.402344 199.488281 150.246094 200.503906 151.28125 200.503906 C 150.246094 200.503906 149.402344 201.511719 149.402344 202.761719 C 149.402344 204.003906 150.246094 205.015625 151.28125 205.015625 C 150.246094 205.015625 149.402344 206.027344 149.402344 207.273438 C 149.402344 208.519531 150.246094 209.53125 151.28125 209.53125 L 151.28125 215.738281 L 143.003906 215.738281 L 143.003906 209.152344 L 146.578125 209.152344 L 146.578125 204.640625 L 143.003906 204.640625 L 143.003906 202.382813 L 146.578125 202.382813 L 146.578125 196.363281 L 143.003906 196.363281 L 143.003906 195.046875 C 143.003906 191.824219 140.394531 189.210938 137.171875 189.210938 L 130.128906 189.210938 C 129.511719 188.800781 129.269531 188.113281 129.269531 187.492188 C 129.269531 186.527344 129.039063 185.074219 126.640625 185.074219 L 121.371094 185.074219 C 118.972656 185.074219 118.734375 186.527344 118.734375 187.492188 C 118.734375 188.113281 118.496094 188.800781 117.878906 189.210938 L 114.972656 189.210938 L 114.972656 186.953125 L 110.460938 186.953125 L 110.460938 189.230469 C 107.414063 189.429688 105.003906 191.953125 105.003906 195.046875 L 105.003906 196.363281 L 101.429688 196.363281 L 101.429688 202.382813 L 105.003906 202.382813 L 105.003906 204.640625 L 101.429688 204.640625 L 101.429688 209.152344 L 105.003906 209.152344 L 105.003906 215.738281 L 96.722656 215.738281 L 96.722656 209.53125 C 97.761719 209.53125 98.605469 208.519531 98.605469 207.273438 C 98.605469 206.027344 97.761719 205.015625 96.722656 205.015625 C 97.761719 205.015625 98.605469 204.003906 98.605469 202.761719 C 98.605469 201.511719 97.761719 200.503906 96.722656 200.503906 C 97.761719 200.503906 98.605469 199.488281 98.605469 198.242188 C 98.605469 196.996094 97.761719 195.984375 96.722656 195.984375 L 96.722656 193.160156 C 96.722656 192.125 95.671875 191.28125 94.375 191.28125 C 93.074219 191.28125 92.023438 192.125 92.023438 193.160156 L 92.023438 195.984375 C 90.984375 195.984375 90.140625 196.996094 90.140625 198.242188 C 90.140625 199.488281 90.984375 200.503906 92.023438 200.503906 C 90.984375 200.503906 90.140625 201.511719 90.140625 202.761719 C 90.140625 204.003906 90.984375 205.015625 92.023438 205.015625 C 90.984375 205.015625 90.140625 206.027344 90.140625 207.273438 C 90.140625 208.519531 90.984375 209.53125 92.023438 209.53125 L 92.023438 212.917969 C 92.023438 217.308594 93.746094 220.445313 98.605469 220.445313 L 105.085938 220.445313 C 105.535156 223.21875 107.933594 225.332031 110.832031 225.335938 L 137.171875 225.332031 C 140.074219 225.332031 142.472656 223.21875 142.925781 220.445313 L 149.402344 220.445313 C 154.265625 220.445313 155.984375 217.308594 155.984375 212.917969 L 155.984375 209.53125 C 157.023438 209.53125 157.867188 208.519531 157.867188 207.273438 C 157.867188 206.027344 157.023438 205.015625 155.984375 205.015625 C 157.023438 205.015625 157.867188 204.003906 157.867188 202.761719 "/>
<path style="fill-rule:nonzero;fill:rgb(14.804077%,34.913635%,60.046387%);fill-opacity:1;stroke-width:1;stroke-linecap:butt;stroke-linejoin:miter;stroke:rgb(14.804077%,34.913635%,60.046387%);stroke-opacity:1;stroke-miterlimit:10;" d="M -0.00194375 -0.0001 L -4.486319 -7.754006 L -17.271475 -0.355569 L -12.7871 7.398338 Z M -0.00194375 -0.0001 " transform="matrix(1,0,0,-1,127.1621,32.3749)"/>
<path style="fill-rule:nonzero;fill:rgb(14.804077%,34.913635%,60.046387%);fill-opacity:1;stroke-width:1;stroke-linecap:butt;stroke-linejoin:miter;stroke:rgb(14.804077%,34.913635%,60.046387%);stroke-opacity:1;stroke-miterlimit:10;" d="M -0.00149375 -0.0001375 L -4.485869 -7.754044 L -7.610869 -5.94545 L -3.126494 1.808456 Z M -0.00149375 -0.0001375 " transform="matrix(1,0,0,-1,111.7554,23.2733)"/>
<path style="fill-rule:nonzero;fill:rgb(14.804077%,34.913635%,60.046387%);fill-opacity:1;stroke-width:1;stroke-linecap:butt;stroke-linejoin:miter;stroke:rgb(14.804077%,34.913635%,60.046387%);stroke-opacity:1;stroke-miterlimit:10;" d="M -0.001 0.0013375 L -5.083031 -8.783819 L -18.876 -0.80335 L -13.790062 7.981806 Z M -0.001 0.0013375 " transform="matrix(1,0,0,-1,131.8135,19.4154)"/>
<path style="fill-rule:nonzero;fill:rgb(14.804077%,34.913635%,60.046387%);fill-opacity:1;stroke-width:1;stroke-linecap:butt;stroke-linejoin:miter;stroke:rgb(14.804077%,34.913635%,60.046387%);stroke-opacity:1;stroke-miterlimit:10;" d="M -0.00145625 -0.0001375 L -5.083488 -8.785294 L -18.876456 -0.804825 L -13.794425 7.980331 Z M -0.00145625 -0.0001375 " transform="matrix(1,0,0,-1,118.8413,41.8358)"/>
<path style="fill-rule:nonzero;fill:rgb(14.804077%,34.913635%,60.046387%);fill-opacity:1;stroke-width:1;stroke-linecap:butt;stroke-linejoin:miter;stroke:rgb(14.804077%,34.913635%,60.046387%);stroke-opacity:1;stroke-miterlimit:10;" d="M 0.0004625 -0.00160625 L -12.972194 -22.419575 L -14.046413 -21.798481 L -1.073756 0.619487 Z M 0.0004625 -0.00160625 " transform="matrix(1,0,0,-1,122.9136,20.1273)"/>
<path style="fill:none;stroke-width:11;stroke-linecap:butt;stroke-linejoin:miter;stroke:rgb(100%,100%,100%);stroke-opacity:1;stroke-miterlimit:4;" d="M -0.0000125 0.00180625 C -0.0000125 -68.099756 -55.207044 -123.306788 -123.308606 -123.306788 C -191.406263 -123.306788 -246.613294 -68.099756 -246.613294 0.00180625 C -246.613294 68.103369 -191.406263 123.306494 -123.308606 123.306494 C -55.207044 123.306494 -0.0000125 68.103369 -0.0000125 0.00180625 Z M -0.0000125 0.00180625 " transform="matrix(1,0,0,-1,250.8672,127.5604)"/>
<path style="fill:none;stroke-width:3.5;stroke-linecap:butt;stroke-linejoin:miter;stroke:rgb(25.177002%,50.712585%,79.701233%);stroke-opacity:1;stroke-miterlimit:4;" d="M -0.0000125 0.00180625 C -0.0000125 -68.099756 -55.207044 -123.306788 -123.308606 -123.306788 C -191.406263 -123.306788 -246.613294 -68.099756 -246.613294 0.00180625 C -246.613294 68.103369 -191.406263 123.306494 -123.308606 123.306494 C -55.207044 123.306494 -0.0000125 68.103369 -0.0000125 0.00180625 Z M -0.0000125 0.00180625 " transform="matrix(1,0,0,-1,250.8672,127.5604)"/>
<path style="fill:none;stroke-width:3.403;stroke-linecap:butt;stroke-linejoin:miter;stroke:rgb(100%,100%,100%);stroke-opacity:1;stroke-miterlimit:10;" d="M 0.00144375 -0.00010625 C -0.0024625 0.574112 0.0405062 1.476456 0.774881 1.585831 C 1.4116 1.675675 1.841288 0.960831 2.075663 0.468644 C 2.560038 -0.554794 3.040506 -1.574325 3.528788 -2.601669 C 3.653788 -2.8712 4.204569 -4.125106 4.489725 -4.2462 C 4.770975 -4.367294 6.028788 -3.918075 6.310038 -3.828231 C 6.321756 -3.824325 6.337381 -3.816513 6.3491 -3.812606 C 7.423319 -3.461044 8.497538 -3.109481 9.575663 -2.761825 C 10.118631 -2.582138 10.989725 -2.343856 11.321756 -3.011825 C 11.520975 -3.418075 11.313944 -3.828231 11.060038 -4.148544 C 10.94285 -4.300888 10.802225 -4.457138 10.6616 -4.58995 C 9.837381 -5.363388 9.013163 -6.144638 8.19285 -6.918075 C 7.970194 -7.125106 6.950663 -8.035263 6.923319 -8.343856 C 6.892069 -8.648544 7.731913 -9.734481 7.907694 -9.976669 C 8.575663 -10.894638 9.239725 -11.8087 9.907694 -12.722763 C 10.243631 -13.1837 10.743631 -13.937606 10.208475 -14.457138 C 9.747538 -14.906356 8.978006 -14.578231 8.501444 -14.320419 C 7.509256 -13.773544 6.517069 -13.234481 5.524881 -12.691513 C 5.259256 -12.543075 4.079569 -11.855575 3.778788 -11.921981 C 3.481913 -11.988388 2.751444 -13.0587 2.579569 -13.293075 C 2.563944 -13.316513 2.544413 -13.343856 2.528788 -13.367294 C 1.864725 -14.281356 1.200663 -15.199325 0.5366 -16.113388 C 0.200662 -16.578231 -0.361838 -17.289169 -1.021994 -16.937606 C -1.592306 -16.640731 -1.518088 -15.8087 -1.416525 -15.273544 C -1.205588 -14.160263 -0.998556 -13.050888 -0.787619 -11.937606 C -0.732931 -11.644638 -0.439963 -10.304794 -0.596213 -10.039169 C -0.756369 -9.773544 -2.068869 -9.390731 -2.357931 -9.296981 C -3.436056 -8.949325 -4.510275 -8.601669 -5.5884 -8.254013 C -6.131369 -8.078231 -6.979025 -7.757919 -6.854025 -7.023544 C -6.74465 -6.390731 -5.928244 -6.203231 -5.389181 -6.136825 C -4.268088 -5.992294 -3.146994 -5.847763 -2.0259 -5.703231 L -2.018088 -5.699325 C -1.717306 -5.664169 -0.361838 -5.52745 -0.158713 -5.296981 C 0.0444125 -5.062606 0.00144375 -3.695419 0.00144375 -3.394638 C 0.00144375 -2.261825 0.00144375 -1.132919 0.00144375 -0.00010625 Z M 0.00144375 -0.00010625 " transform="matrix(1,0,0,-1,48.1509,157.8788)"/>
<path style=" stroke:none;fill-rule:nonzero;fill:rgb(14.804077%,34.913635%,60.046387%);fill-opacity:1;" d="M 48.152344 157.878906 C 48.148438 157.304688 48.191406 156.402344 48.925781 156.292969 C 49.5625 156.203125 49.992188 156.917969 50.226563 157.410156 C 50.710938 158.433594 51.191406 159.453125 51.679688 160.480469 C 51.804688 160.75 52.355469 162.003906 52.640625 162.125 C 52.921875 162.246094 54.179688 161.796875 54.460938 161.707031 C 54.472656 161.703125 54.488281 161.695313 54.5 161.691406 C 55.574219 161.339844 56.648438 160.988281 57.726563 160.640625 C 58.269531 160.460938 59.140625 160.222656 59.472656 160.890625 C 59.671875 161.296875 59.464844 161.707031 59.210938 162.027344 C 59.09375 162.179688 58.953125 162.335938 58.8125 162.46875 C 57.988281 163.242188 57.164063 164.023438 56.34375 164.796875 C 56.121094 165.003906 55.101563 165.914063 55.074219 166.222656 C 55.042969 166.527344 55.882813 167.613281 56.058594 167.855469 C 56.726563 168.773438 57.390625 169.6875 58.058594 170.601563 C 58.394531 171.0625 58.894531 171.816406 58.359375 172.335938 C 57.898438 172.785156 57.128906 172.457031 56.652344 172.199219 C 55.660156 171.652344 54.667969 171.113281 53.675781 170.570313 C 53.410156 170.421875 52.230469 169.734375 51.929688 169.800781 C 51.632813 169.867188 50.902344 170.9375 50.730469 171.171875 C 50.714844 171.195313 50.695313 171.222656 50.679688 171.246094 C 50.015625 172.160156 49.351563 173.078125 48.6875 173.992188 C 48.351563 174.457031 47.789063 175.167969 47.128906 174.816406 C 46.558594 174.519531 46.632813 173.6875 46.734375 173.152344 C 46.945313 172.039063 47.152344 170.929688 47.363281 169.816406 C 47.417969 169.523438 47.710938 168.183594 47.554688 167.917969 C 47.394531 167.652344 46.082031 167.269531 45.792969 167.175781 C 44.714844 166.828125 43.640625 166.480469 42.5625 166.132813 C 42.019531 165.957031 41.171875 165.636719 41.296875 164.902344 C 41.40625 164.269531 42.222656 164.082031 42.761719 164.015625 C 43.882813 163.871094 45.003906 163.726563 46.125 163.582031 L 46.132813 163.578125 C 46.433594 163.542969 47.789063 163.40625 47.992188 163.175781 C 48.195313 162.941406 48.152344 161.574219 48.152344 161.273438 C 48.152344 160.140625 48.152344 159.011719 48.152344 157.878906 "/>
<path style=" stroke:none;fill-rule:nonzero;fill:rgb(100%,100%,100%);fill-opacity:1;" d="M 193.296875 106.332031 C 193.238281 106.300781 193.171875 106.292969 193.109375 106.3125 C 193.042969 106.332031 192.988281 106.375 192.957031 106.433594 L 189.40625 113.082031 L 187.300781 111.925781 C 186.816406 111.664063 186.207031 111.839844 185.945313 112.324219 C 185.675781 112.808594 185.855469 113.417969 186.339844 113.683594 L 188.464844 114.84375 L 177.804688 134.796875 L 175.78125 133.691406 C 175.542969 133.558594 175.238281 133.644531 175.105469 133.890625 C 174.972656 134.132813 175.0625 134.433594 175.304688 134.570313 L 177.335938 135.679688 L 160.160156 167.824219 C 160.128906 167.882813 160.121094 167.953125 160.144531 168.015625 C 160.160156 168.078125 160.203125 168.132813 160.265625 168.164063 L 170.132813 173.433594 C 170.167969 173.453125 170.207031 173.464844 170.25 173.464844 C 170.339844 173.464844 170.425781 173.414063 170.46875 173.332031 L 182.230469 151.320313 L 184.25 152.539063 C 184.328125 152.585938 184.417969 152.609375 184.507813 152.609375 C 184.675781 152.609375 184.839844 152.523438 184.933594 152.367188 C 185.078125 152.132813 185 151.824219 184.765625 151.683594 L 182.699219 150.4375 L 198.71875 120.457031 L 200.878906 121.636719 C 201.03125 121.722656 201.195313 121.761719 201.359375 121.761719 C 201.714844 121.761719 202.054688 121.574219 202.238281 121.242188 C 202.503906 120.757813 202.324219 120.148438 201.839844 119.882813 L 199.660156 118.691406 L 203.269531 111.941406 C 203.300781 111.882813 203.304688 111.8125 203.285156 111.75 C 203.265625 111.6875 203.222656 111.632813 203.164063 111.601563 Z M 193.296875 106.332031 "/>
<g clip-path="url(#clip3)" clip-rule="nonzero">
<path style="fill:none;stroke-width:4;stroke-linecap:butt;stroke-linejoin:miter;stroke:rgb(100%,100%,100%);stroke-opacity:1;stroke-miterlimit:10;" d="M -0.001025 -0.00063125 C -0.0596187 0.0306188 -0.126025 0.0384313 -0.188525 0.0189 C -0.254931 -0.00063125 -0.309619 -0.0436 -0.340869 -0.102194 L -3.89165 -6.750631 L -5.997119 -5.594381 C -6.481494 -5.332662 -7.090869 -5.508444 -7.352587 -5.992819 C -7.622119 -6.477194 -7.442431 -7.086569 -6.958056 -7.352194 L -4.833056 -8.51235 L -15.493212 -28.465475 L -17.51665 -27.360006 C -17.754931 -27.227194 -18.059619 -27.313131 -18.192431 -27.559225 C -18.325244 -27.801412 -18.2354 -28.102194 -17.993212 -28.238912 L -15.961962 -29.348287 L -33.137744 -61.492819 C -33.168994 -61.551412 -33.176806 -61.621725 -33.153369 -61.684225 C -33.137744 -61.746725 -33.094775 -61.801412 -33.032275 -61.832662 L -23.165087 -67.102194 C -23.129931 -67.121725 -23.090869 -67.133444 -23.0479 -67.133444 C -22.958056 -67.133444 -22.872119 -67.082662 -22.82915 -67.000631 L -11.067431 -44.988912 L -9.0479 -46.207662 C -8.969775 -46.254537 -8.879931 -46.277975 -8.790087 -46.277975 C -8.622119 -46.277975 -8.458056 -46.192037 -8.364306 -46.035787 C -8.219775 -45.801412 -8.2979 -45.492819 -8.532275 -45.352194 L -10.598681 -44.1061 L 5.42085 -14.125631 L 7.581006 -15.305319 C 7.73335 -15.391256 7.897413 -15.430319 8.061475 -15.430319 C 8.416944 -15.430319 8.756788 -15.242819 8.940381 -14.910787 C 9.206006 -14.426412 9.026319 -13.817037 8.541944 -13.551412 L 6.362256 -12.360006 L 9.971631 -5.610006 C 10.002881 -5.551412 10.006788 -5.4811 9.987256 -5.4186 C 9.967725 -5.3561 9.924756 -5.301412 9.866163 -5.270162 Z M -0.001025 -0.00063125 " transform="matrix(1,0,0,-1,193.2979,106.3314)"/>
</g>
<path style="fill-rule:nonzero;fill:rgb(100%,100%,100%);fill-opacity:1;stroke-width:4;stroke-linecap:butt;stroke-linejoin:miter;stroke:rgb(100%,100%,100%);stroke-opacity:1;stroke-miterlimit:10;" d="M 0.00194375 0.000825 C -0.0605563 0.032075 -0.126963 0.0359813 -0.189463 0.0203563 C -0.255869 0.000825 -0.30665 -0.0421437 -0.3379 -0.104644 L -2.052744 -3.311675 C -2.115244 -3.432769 -2.072275 -3.585112 -1.951181 -3.647612 L 7.916006 -8.92105 C 7.951162 -8.940581 7.994131 -8.948394 8.033194 -8.948394 C 8.060537 -8.948394 8.083975 -8.944487 8.107412 -8.940581 C 8.169912 -8.92105 8.2246 -8.874175 8.25585 -8.819487 L 9.966787 -5.60855 C 10.033194 -5.487456 9.986319 -5.335112 9.865225 -5.272612 Z M 0.00194375 0.000825 " transform="matrix(1,0,0,-1,159.5254,169.5477)"/>
<path style=" stroke:none;fill-rule:nonzero;fill:rgb(100%,100%,100%);fill-opacity:1;" d="M 218.492188 73.476563 C 218.253906 73.347656 217.949219 73.4375 217.816406 73.683594 L 209.652344 88.96875 C 209.570313 88.75 209.421875 88.554688 209.199219 88.4375 C 208.710938 88.175781 208.105469 88.363281 207.847656 88.847656 L 200.847656 101.945313 C 200.261719 101.75 199.644531 101.640625 199.027344 101.640625 C 196.863281 101.640625 194.890625 102.824219 193.867188 104.730469 C 193.839844 104.789063 193.832031 104.855469 193.847656 104.921875 C 193.871094 104.984375 193.914063 105.039063 193.972656 105.070313 L 203.839844 110.339844 C 203.875 110.359375 203.914063 110.371094 203.957031 110.371094 C 203.980469 110.371094 204.003906 110.367188 204.027344 110.359375 C 204.09375 110.339844 204.144531 110.296875 204.175781 110.238281 C 205.421875 107.902344 204.914063 105.09375 203.117188 103.324219 L 218.699219 74.152344 C 218.832031 73.910156 218.738281 73.605469 218.492188 73.476563 "/>
<g clip-path="url(#clip4)" clip-rule="nonzero">
<path style="fill:none;stroke-width:4;stroke-linecap:butt;stroke-linejoin:miter;stroke:rgb(100%,100%,100%);stroke-opacity:1;stroke-miterlimit:10;" d="M -0.0019125 -0.0001625 C -0.240194 0.128744 -0.544881 0.0389 -0.677694 -0.207194 L -8.841756 -15.49235 C -8.923788 -15.2736 -9.072225 -15.078287 -9.294881 -14.9611 C -9.783163 -14.699381 -10.388631 -14.886881 -10.646444 -15.371256 L -17.646444 -28.468912 C -18.232381 -28.2736 -18.849569 -28.164225 -19.466756 -28.164225 C -21.630819 -28.164225 -23.603475 -29.347819 -24.626913 -31.254069 C -24.654256 -31.312662 -24.662069 -31.379069 -24.646444 -31.445475 C -24.623006 -31.507975 -24.580038 -31.562662 -24.521444 -31.593912 L -14.654256 -36.863444 C -14.6191 -36.882975 -14.580038 -36.894694 -14.537069 -36.894694 C -14.513631 -36.894694 -14.490194 -36.890787 -14.466756 -36.882975 C -14.40035 -36.863444 -14.349569 -36.820475 -14.318319 -36.761881 C -13.072225 -34.425944 -13.580038 -31.61735 -15.376913 -29.847819 L 0.205119 -0.675944 C 0.337931 -0.433756 0.244181 -0.129069 -0.0019125 -0.0001625 Z M -0.0019125 -0.0001625 " transform="matrix(1,0,0,-1,218.4941,73.4764)"/>
</g>
<path style=" stroke:none;fill-rule:nonzero;fill:rgb(14.804077%,34.913635%,60.046387%);fill-opacity:1;" d="M 193.296875 106.332031 C 193.238281 106.300781 193.171875 106.292969 193.109375 106.3125 C 193.042969 106.332031 192.988281 106.375 192.957031 106.433594 L 189.40625 113.082031 L 187.300781 111.925781 C 186.816406 111.664063 186.207031 111.839844 185.945313 112.324219 C 185.675781 112.808594 185.855469 113.417969 186.339844 113.683594 L 188.464844 114.84375 L 177.804688 134.796875 L 175.78125 133.691406 C 175.542969 133.558594 175.238281 133.644531 175.105469 133.890625 C 174.972656 134.132813 175.0625 134.433594 175.304688 134.570313 L 177.335938 135.679688 L 160.160156 167.824219 C 160.128906 167.882813 160.121094 167.953125 160.144531 168.015625 C 160.160156 168.078125 160.203125 168.132813 160.265625 168.164063 L 170.132813 173.433594 C 170.167969 173.453125 170.207031 173.464844 170.25 173.464844 C 170.339844 173.464844 170.425781 173.414063 170.46875 173.332031 L 182.230469 151.320313 L 184.25 152.539063 C 184.328125 152.585938 184.417969 152.609375 184.507813 152.609375 C 184.675781 152.609375 184.839844 152.523438 184.933594 152.367188 C 185.078125 152.132813 185 151.824219 184.765625 151.683594 L 182.699219 150.4375 L 198.71875 120.457031 L 200.878906 121.636719 C 201.03125 121.722656 201.195313 121.761719 201.359375 121.761719 C 201.714844 121.761719 202.054688 121.574219 202.238281 121.242188 C 202.503906 120.757813 202.324219 120.148438 201.839844 119.882813 L 199.660156 118.691406 L 203.269531 111.941406 C 203.300781 111.882813 203.304688 111.8125 203.285156 111.75 C 203.265625 111.6875 203.222656 111.632813 203.164063 111.601563 Z M 193.296875 106.332031 "/>
<path style=" stroke:none;fill-rule:nonzero;fill:rgb(14.804077%,34.913635%,60.046387%);fill-opacity:1;" d="M 159.527344 169.546875 C 159.464844 169.515625 159.398438 169.511719 159.335938 169.527344 C 159.269531 169.546875 159.21875 169.589844 159.1875 169.652344 L 157.472656 172.859375 C 157.410156 172.980469 157.453125 173.132813 157.574219 173.195313 L 167.441406 178.46875 C 167.476563 178.488281 167.519531 178.496094 167.558594 178.496094 C 167.585938 178.496094 167.609375 178.492188 167.632813 178.488281 C 167.695313 178.46875 167.75 178.421875 167.78125 178.367188 L 169.492188 175.15625 C 169.558594 175.035156 169.511719 174.882813 169.390625 174.820313 Z M 159.527344 169.546875 "/>
<path style=" stroke:none;fill-rule:nonzero;fill:rgb(14.804077%,34.913635%,60.046387%);fill-opacity:1;" d="M 218.492188 73.476563 C 218.253906 73.347656 217.949219 73.4375 217.816406 73.683594 L 209.652344 88.96875 C 209.570313 88.75 209.421875 88.554688 209.199219 88.4375 C 208.710938 88.175781 208.105469 88.363281 207.847656 88.847656 L 200.847656 101.945313 C 200.261719 101.75 199.644531 101.640625 199.027344 101.640625 C 196.863281 101.640625 194.890625 102.824219 193.867188 104.730469 C 193.839844 104.789063 193.832031 104.855469 193.847656 104.921875 C 193.871094 104.984375 193.914063 105.039063 193.972656 105.070313 L 203.839844 110.339844 C 203.875 110.359375 203.914063 110.371094 203.957031 110.371094 C 203.980469 110.371094 204.003906 110.367188 204.027344 110.359375 C 204.09375 110.339844 204.144531 110.296875 204.175781 110.238281 C 205.421875 107.902344 204.914063 105.09375 203.117188 103.324219 L 218.699219 74.152344 C 218.832031 73.910156 218.738281 73.605469 218.492188 73.476563 "/>
<path style=" stroke:none;fill-rule:nonzero;fill:rgb(60.548401%,71.246338%,89.161682%);fill-opacity:1;" d="M 43.554688 165.148438 C 43.539063 165.3125 43.660156 165.457031 43.824219 165.472656 C 43.988281 165.488281 44.132813 165.367188 44.148438 165.203125 C 44.164063 165.039063 44.042969 164.894531 43.878906 164.878906 C 43.714844 164.863281 43.570313 164.984375 43.554688 165.148438 "/>
<path style=" stroke:none;fill-rule:nonzero;fill:rgb(60.548401%,71.246338%,89.161682%);fill-opacity:1;" d="M 48.90625 165.644531 C 48.894531 165.808594 49.011719 165.957031 49.179688 165.96875 C 49.339844 165.984375 49.488281 165.867188 49.503906 165.699219 C 49.515625 165.535156 49.398438 165.390625 49.234375 165.375 C 49.070313 165.359375 48.925781 165.480469 48.90625 165.644531 "/>
<path style=" stroke:none;fill-rule:nonzero;fill:rgb(60.548401%,71.246338%,89.161682%);fill-opacity:1;" d="M 47.121094 165.480469 C 47.109375 165.644531 47.230469 165.789063 47.394531 165.804688 C 47.558594 165.820313 47.703125 165.699219 47.71875 165.535156 C 47.734375 165.371094 47.613281 165.222656 47.449219 165.207031 C 47.285156 165.195313 47.136719 165.3125 47.121094 165.480469 "/>
<path style=" stroke:none;fill-rule:nonzero;fill:rgb(60.548401%,71.246338%,89.161682%);fill-opacity:1;" d="M 45.339844 165.3125 C 45.324219 165.476563 45.445313 165.625 45.609375 165.636719 C 45.773438 165.652344 45.917969 165.535156 45.933594 165.371094 C 45.949219 165.203125 45.828125 165.058594 45.664063 165.042969 C 45.5 165.027344 45.355469 165.148438 45.339844 165.3125 "/>
<path style=" stroke:none;fill-rule:nonzero;fill:rgb(60.548401%,71.246338%,89.161682%);fill-opacity:1;" d="M 48.066406 172.742188 C 48.214844 172.808594 48.390625 172.738281 48.457031 172.585938 C 48.523438 172.433594 48.453125 172.257813 48.300781 172.191406 C 48.148438 172.128906 47.972656 172.195313 47.910156 172.347656 C 47.84375 172.5 47.914063 172.675781 48.066406 172.742188 "/>
<path style=" stroke:none;fill-rule:nonzero;fill:rgb(60.548401%,71.246338%,89.161682%);fill-opacity:1;" d="M 50.191406 167.804688 C 50.34375 167.871094 50.519531 167.800781 50.582031 167.648438 C 50.648438 167.496094 50.578125 167.320313 50.425781 167.253906 C 50.273438 167.191406 50.097656 167.257813 50.035156 167.410156 C 49.96875 167.566406 50.039063 167.742188 50.191406 167.804688 "/>
<path style=" stroke:none;fill-rule:nonzero;fill:rgb(60.548401%,71.246338%,89.161682%);fill-opacity:1;" d="M 49.480469 169.449219 C 49.632813 169.515625 49.808594 169.445313 49.875 169.292969 C 49.9375 169.144531 49.871094 168.96875 49.71875 168.902344 C 49.566406 168.835938 49.390625 168.90625 49.324219 169.058594 C 49.261719 169.210938 49.332031 169.386719 49.480469 169.449219 "/>
<path style=" stroke:none;fill-rule:nonzero;fill:rgb(60.548401%,71.246338%,89.161682%);fill-opacity:1;" d="M 48.773438 171.09375 C 48.925781 171.160156 49.097656 171.089844 49.164063 170.941406 C 49.230469 170.785156 49.160156 170.613281 49.007813 170.546875 C 48.855469 170.484375 48.679688 170.550781 48.617188 170.703125 C 48.550781 170.855469 48.621094 171.03125 48.773438 171.09375 "/>
<path style=" stroke:none;fill-rule:nonzero;fill:rgb(60.548401%,71.246338%,89.161682%);fill-opacity:1;" d="M 56.679688 170.800781 C 56.789063 170.675781 56.777344 170.488281 56.652344 170.378906 C 56.527344 170.269531 56.339844 170.28125 56.230469 170.40625 C 56.121094 170.53125 56.132813 170.71875 56.257813 170.828125 C 56.382813 170.9375 56.570313 170.921875 56.679688 170.800781 "/>
<path style=" stroke:none;fill-rule:nonzero;fill:rgb(60.548401%,71.246338%,89.161682%);fill-opacity:1;" d="M 52.640625 167.25 C 52.75 167.128906 52.738281 166.941406 52.613281 166.828125 C 52.488281 166.722656 52.300781 166.734375 52.191406 166.855469 C 52.082031 166.980469 52.09375 167.171875 52.21875 167.277344 C 52.34375 167.390625 52.53125 167.375 52.640625 167.25 "/>
<path style=" stroke:none;fill-rule:nonzero;fill:rgb(60.548401%,71.246338%,89.161682%);fill-opacity:1;" d="M 53.988281 168.433594 C 54.097656 168.308594 54.082031 168.121094 53.960938 168.011719 C 53.835938 167.90625 53.648438 167.914063 53.539063 168.039063 C 53.429688 168.164063 53.441406 168.351563 53.566406 168.460938 C 53.691406 168.570313 53.878906 168.558594 53.988281 168.433594 "/>
<path style=" stroke:none;fill-rule:nonzero;fill:rgb(60.548401%,71.246338%,89.161682%);fill-opacity:1;" d="M 55.332031 169.617188 C 55.441406 169.492188 55.433594 169.304688 55.304688 169.195313 C 55.183594 169.085938 54.992188 169.097656 54.882813 169.222656 C 54.777344 169.347656 54.789063 169.535156 54.910156 169.644531 C 55.035156 169.753906 55.226563 169.738281 55.332031 169.617188 "/>
<path style=" stroke:none;fill-rule:nonzero;fill:rgb(60.548401%,71.246338%,89.161682%);fill-opacity:1;" d="M 57.496094 162.003906 C 57.410156 161.863281 57.226563 161.816406 57.085938 161.902344 C 56.945313 161.984375 56.898438 162.167969 56.980469 162.3125 C 57.066406 162.453125 57.25 162.5 57.390625 162.414063 C 57.53125 162.332031 57.582031 162.148438 57.496094 162.003906 "/>
<path style=" stroke:none;fill-rule:nonzero;fill:rgb(60.548401%,71.246338%,89.161682%);fill-opacity:1;" d="M 52.871094 164.75 C 52.789063 164.609375 52.605469 164.5625 52.464844 164.648438 C 52.320313 164.730469 52.273438 164.914063 52.359375 165.058594 C 52.445313 165.199219 52.625 165.246094 52.769531 165.160156 C 52.910156 165.074219 52.957031 164.894531 52.871094 164.75 "/>
<path style=" stroke:none;fill-rule:nonzero;fill:rgb(60.548401%,71.246338%,89.161682%);fill-opacity:1;" d="M 54.414063 163.835938 C 54.328125 163.695313 54.144531 163.648438 54.003906 163.730469 C 53.863281 163.816406 53.816406 164 53.898438 164.140625 C 53.984375 164.28125 54.167969 164.332031 54.3125 164.246094 C 54.453125 164.160156 54.496094 163.976563 54.414063 163.835938 "/>
<path style=" stroke:none;fill-rule:nonzero;fill:rgb(60.548401%,71.246338%,89.161682%);fill-opacity:1;" d="M 55.953125 162.921875 C 55.871094 162.777344 55.6875 162.734375 55.546875 162.816406 C 55.402344 162.898438 55.355469 163.082031 55.441406 163.226563 C 55.523438 163.367188 55.710938 163.414063 55.851563 163.332031 C 55.992188 163.246094 56.039063 163.0625 55.953125 162.921875 "/>
<path style=" stroke:none;fill-rule:nonzero;fill:rgb(60.548401%,71.246338%,89.161682%);fill-opacity:1;" d="M 49.382813 158.511719 C 49.222656 158.550781 49.121094 158.707031 49.160156 158.867188 C 49.195313 159.035156 49.355469 159.132813 49.515625 159.09375 C 49.675781 159.058594 49.777344 158.902344 49.738281 158.738281 C 49.703125 158.578125 49.542969 158.476563 49.382813 158.511719 "/>
<path style=" stroke:none;fill-rule:nonzero;fill:rgb(60.548401%,71.246338%,89.161682%);fill-opacity:1;" d="M 50.96875 165.550781 C 50.808594 165.585938 50.707031 165.746094 50.746094 165.90625 C 50.78125 166.066406 50.941406 166.167969 51.101563 166.132813 C 51.261719 166.097656 51.363281 165.9375 51.328125 165.777344 C 51.289063 165.613281 51.128906 165.515625 50.96875 165.550781 "/>
<path style=" stroke:none;fill-rule:nonzero;fill:rgb(60.548401%,71.246338%,89.161682%);fill-opacity:1;" d="M 50.566406 163.757813 C 50.40625 163.792969 50.304688 163.953125 50.339844 164.113281 C 50.378906 164.277344 50.535156 164.375 50.699219 164.339844 C 50.855469 164.304688 50.957031 164.144531 50.921875 163.984375 C 50.886719 163.820313 50.726563 163.71875 50.566406 163.757813 "/>
<path style=" stroke:none;fill-rule:nonzero;fill:rgb(60.548401%,71.246338%,89.161682%);fill-opacity:1;" d="M 50.171875 162.007813 C 50.011719 162.042969 49.910156 162.203125 49.945313 162.367188 C 49.984375 162.527344 50.144531 162.628906 50.304688 162.59375 C 50.464844 162.558594 50.566406 162.394531 50.527344 162.234375 C 50.492188 162.074219 50.332031 161.972656 50.171875 162.007813 "/>
<path style=" stroke:none;fill-rule:nonzero;fill:rgb(60.548401%,71.246338%,89.161682%);fill-opacity:1;" d="M 49.777344 160.261719 C 49.617188 160.296875 49.515625 160.457031 49.550781 160.617188 C 49.589844 160.777344 49.75 160.878906 49.910156 160.84375 C 50.070313 160.808594 50.167969 160.648438 50.132813 160.488281 C 50.097656 160.324219 49.9375 160.226563 49.777344 160.261719 "/>
</g>
</svg>
